<svg width="30" height="30" viewBox="0 0 40 40" fill="none" xmlns="http://www.w3.org/2000/svg">
<g clip-path="url(#clip0_8_3)">
<path d="M8.23119 11.3688H10.7128L11.868 31.72C11.8796 31.9239 11.9688 32.1156 12.1173 32.2559C12.2657 32.3961 12.4622 32.4743 12.6664 32.4744H27.8128C28.0172 32.4743 28.2137 32.396 28.3622 32.2556C28.5107 32.1152 28.5998 31.9232 28.6112 31.7192L29.748 11.3688H32.2312C32.4434 11.3688 32.6469 11.2845 32.7969 11.1345C32.9469 10.9845 33.0312 10.781 33.0312 10.5688C33.0312 10.3566 32.9469 10.1531 32.7969 10.0031C32.6469 9.85308 32.4434 9.7688 32.2312 9.7688H29.2384C29.1944 9.7688 29.156 9.7872 29.1136 9.7936C29.072 9.7872 29.0336 9.7688 28.9912 9.7688H24.7944V7.6752C24.7944 7.46303 24.7101 7.25954 24.5601 7.10951C24.4101 6.95948 24.2066 6.8752 23.9944 6.8752H16.4672C16.255 6.8752 16.0515 6.95948 15.9015 7.10951C15.7515 7.25954 15.6672 7.46303 15.6672 7.6752V9.7688H11.4688C11.432 9.7688 11.3992 9.7856 11.3632 9.7904C11.3264 9.7848 11.2936 9.7688 11.2552 9.7688H8.232C8.12694 9.76875 8.0229 9.78939 7.92582 9.82954C7.82874 9.8697 7.74052 9.92858 7.66619 10.0028C7.59187 10.0771 7.5329 10.1652 7.49264 10.2623C7.45239 10.3593 7.43165 10.4633 7.43159 10.5684C7.43154 10.6735 7.45218 10.7775 7.49234 10.8746C7.53249 10.9717 7.59138 11.0599 7.66563 11.1342C7.73988 11.2085 7.82804 11.2675 7.92508 11.3077C8.02212 11.348 8.12614 11.3687 8.23119 11.3688ZM17.2672 8.4752H23.1944V9.7688H17.2672V8.4752ZM28.1456 11.3688L27.056 30.8752H13.4224L12.3152 11.3688H28.1456Z" fill="#545454"/>
<path d="M16.2696 29.3752L16.316 29.3744C16.4209 29.3685 16.5235 29.3419 16.6182 29.2963C16.7128 29.2507 16.7974 29.1868 16.8674 29.1084C16.9373 29.0301 16.9911 28.9387 17.0256 28.8395C17.0602 28.7403 17.0749 28.6353 17.0688 28.5304L16.2272 13.7024C16.2128 13.4915 16.1164 13.2945 15.9587 13.1537C15.801 13.0129 15.5944 12.9393 15.3832 12.9488C15.2783 12.9547 15.1757 12.9813 15.0811 13.0269C14.9864 13.0725 14.9018 13.1364 14.8318 13.2148C14.7619 13.2931 14.7082 13.3845 14.6736 13.4837C14.639 13.5829 14.6243 13.6879 14.6304 13.7928L15.472 28.6208C15.4836 28.8246 15.5727 29.0162 15.721 29.1564C15.8692 29.2966 16.0655 29.3749 16.2696 29.3752ZM24.1176 29.3744L24.164 29.3752C24.3681 29.3749 24.5644 29.2966 24.7126 29.1564C24.8609 29.0162 24.95 28.8246 24.9616 28.6208L25.8032 13.7928C25.8152 13.5811 25.7427 13.3732 25.6015 13.215C25.4603 13.0567 25.2621 12.961 25.0504 12.9488C24.8391 12.9391 24.6325 13.0126 24.4747 13.1535C24.3169 13.2943 24.2206 13.4914 24.2064 13.7024L23.3648 28.5304C23.3528 28.7421 23.4253 28.95 23.5665 29.1082C23.7077 29.2665 23.9059 29.3622 24.1176 29.3744V29.3744ZM20.2312 29.3752C20.4434 29.3752 20.6469 29.2909 20.7969 29.1409C20.9469 28.9909 21.0312 28.7874 21.0312 28.5752V13.7472C21.0312 13.535 20.9469 13.3315 20.7969 13.1815C20.6469 13.0315 20.4434 12.9472 20.2312 12.9472C20.019 12.9472 19.8155 13.0315 19.6655 13.1815C19.5155 13.3315 19.4312 13.535 19.4312 13.7472V28.5752C19.4312 28.7874 19.5155 28.9909 19.6655 29.1409C19.8155 29.2909 20.019 29.3752 20.2312 29.3752Z" fill="#545454"/>
</g>
<defs>
<clipPath id="clip0_8_3">
<rect width="40" height="40" fill="white"/>
</clipPath>
</defs>
</svg>
